<?xml version="1.0" standalone="no"?>
<!DOCTYPE svg PUBLIC "-//W3C//DTD SVG 20010904//EN"
 "http://www.w3.org/TR/2001/REC-SVG-20010904/DTD/svg10.dtd">
<svg version="1.0" xmlns="http://www.w3.org/2000/svg"
 width="300.000000pt" height="300.000000pt" viewBox="0 0 300.000000 300.000000"
 preserveAspectRatio="xMidYMid meet">
<metadata>
Created by potrace 1.10, written by Peter Selinger 2001-2011
</metadata>
<g transform="translate(0.000000,300.000000) scale(0.100000,-0.100000)"
fill="#1a263d" stroke="none">
<path d="M0 1500 l0 -1500 1500 0 1500 0 0 1500 0 1500 -1500 0 -1500 0 0
-1500z m1132 929 c97 -21 208 -89 320 -197 l47 -46 53 50 c226 213 429 258
519 116 15 -24 33 -70 40 -101 14 -70 7 -242 -16 -335 -9 -37 -14 -71 -11 -73
2 -3 47 -19 100 -37 91 -30 95 -31 116 -14 14 11 39 18 67 18 63 0 103 -40
103 -103 0 -35 8 -57 35 -97 106 -157 -12 -313 -313 -414 -57 -19 -105 -36
-108 -38 -2 -3 3 -41 12 -86 12 -57 21 -82 31 -82 8 0 28 -13 44 -29 49 -49
37 -127 -25 -168 -25 -16 -35 -31 -39 -60 -9 -57 -58 -126 -103 -148 -110 -54
-274 11 -452 179 l-53 50 -47 -46 c-112 -107 -207 -167 -312 -194 -66 -17
-122 -8 -172 27 -41 30 -78 115 -85 197 -5 61 -9 74 -30 88 -61 39 -61 139 -2
172 52 29 58 36 61 70 l3 32 -105 36 c-231 78 -352 182 -352 304 0 121 121
227 350 304 57 19 105 36 108 38 2 3 -4 44 -14 92 -16 78 -21 89 -49 106 -35
21 -54 70 -46 114 3 15 23 41 44 60 22 18 39 39 39 47 0 28 52 119 79 138 22
16 75 36 103 40 4 1 31 -4 60 -10z"/>
<path d="M1013 2360 c-32 -19 -55 -54 -66 -100 -5 -20 -1 -28 24 -42 32 -19
49 -53 49 -100 0 -23 -10 -41 -39 -69 l-40 -37 15 -68 c7 -38 16 -74 18 -80 3
-7 26 -7 78 2 40 7 105 16 145 20 l72 7 34 51 c19 28 62 85 96 126 l62 75 -75
70 c-152 143 -289 197 -373 145z"/>
<path d="M1837 2366 c-65 -23 -146 -78 -223 -151 l-75 -70 75 -93 c41 -51 85
-108 96 -127 18 -29 27 -35 58 -35 20 -1 86 -9 145 -19 59 -10 110 -15 112
-12 16 26 38 185 39 276 0 92 -3 118 -21 157 -37 80 -112 107 -206 74z"/>
<path d="M1443 2038 c-27 -35 -62 -80 -77 -100 l-28 -38 162 0 162 0 -28 38
c-56 76 -128 162 -134 162 -4 0 -29 -28 -57 -62z"/>
<path d="M1325 1843 c-26 -3 -38 -17 -82 -91 -28 -48 -71 -124 -95 -169 l-42
-83 43 -82 c23 -46 65 -122 93 -169 50 -85 52 -87 96 -93 57 -8 285 -8 332 0
32 5 41 15 87 92 29 48 71 124 94 170 l43 82 -43 83 c-23 45 -65 121 -94 169
-46 77 -55 87 -87 92 -38 6 -295 5 -345 -1z m255 -204 c105 -59 105 -219 0
-278 -141 -79 -298 78 -219 219 42 75 142 102 219 59z"/>
<path d="M1100 1819 c-25 -4 -59 -11 -77 -14 l-32 -6 29 -82 c16 -45 35 -97
43 -115 l14 -34 69 123 c38 68 71 127 72 131 5 10 -59 8 -118 -3z"/>
<path d="M1780 1825 c0 -3 10 -22 23 -43 13 -20 45 -77 72 -126 l48 -88 14 33
c18 44 73 199 70 199 -1 0 -40 7 -87 15 -87 15 -140 19 -140 10z"/>
<path d="M835 1757 c-198 -65 -325 -165 -325 -257 0 -69 71 -144 192 -203 78
-38 210 -81 229 -75 6 2 24 41 40 87 16 47 40 108 53 138 l25 53 -25 53 c-13
30 -37 92 -53 138 -21 61 -34 85 -48 86 -10 1 -49 -8 -88 -20z"/>
<path d="M2057 1773 c-2 -4 -15 -39 -27 -78 -13 -38 -36 -98 -51 -132 l-28
-63 28 -64 c16 -35 40 -96 52 -136 13 -40 29 -75 36 -77 19 -7 149 34 231 74
80 39 155 100 177 144 22 41 18 91 -8 130 -22 33 -24 34 -83 31 -53 -3 -65 -1
-89 20 -18 16 -30 38 -34 64 -6 37 -9 40 -68 61 -76 27 -129 37 -136 26z"/>
<path d="M1068 1415 c-4 -11 -22 -63 -42 -117 l-35 -96 22 -5 c46 -12 197 -31
202 -26 2 3 -24 57 -60 120 -89 158 -81 146 -87 124z"/>
<path d="M1875 1344 c-27 -49 -59 -106 -72 -127 -14 -22 -22 -42 -18 -45 5 -5
152 12 202 24 l22 6 -29 81 c-16 45 -35 97 -43 116 l-14 33 -48 -88z"/>
<path d="M977 1143 c-20 -36 -16 -66 13 -99 36 -41 39 -84 10 -131 -11 -18
-31 -35 -46 -39 -25 -6 -26 -8 -19 -68 19 -165 103 -221 245 -163 72 30 138
76 217 151 l64 61 -62 75 c-34 41 -78 99 -97 128 -30 44 -40 52 -66 52 -32 0
-208 26 -238 36 -9 3 -18 1 -21 -3z"/>
<path d="M1910 1130 c-52 -10 -113 -19 -136 -19 -38 -1 -44 -5 -76 -53 -19
-29 -63 -87 -97 -128 l-62 -75 64 -61 c223 -213 417 -231 452 -43 6 30 3 37
-18 48 -31 16 -47 51 -47 98 0 27 8 43 33 67 l34 31 -14 65 c-15 77 -20 90
-30 89 -4 -1 -51 -10 -103 -19z"/>
<path d="M1366 1063 c56 -77 128 -163 134 -163 6 0 78 86 134 163 l28 37 -162
0 -162 0 28 -37z"/>
</g>
</svg>
